<?xml version="1.0" encoding="UTF-8"?>
<svg width="97px" height="38px" viewBox="0 0 97 38" version="1.1" xmlns="http://www.w3.org/2000/svg" xmlns:xlink="http://www.w3.org/1999/xlink">
    <!-- Generator: Sketch 49.3 (51167) - http://www.bohemiancoding.com/sketch -->
    <title>tldr_logo</title>
    <desc>Created with Sketch.</desc>
    <defs></defs>
    <g id="Page-1" stroke="none" stroke-width="1" fill="none" fill-rule="evenodd">
        <g id="Artboard" transform="translate(-202.000000, -41.000000)" fill="#F0E81E">
            <path d="M203.856471,41 L227.892528,41 L226.036194,48.7089994 L218.315145,48.7089994 L211.020565,78.9999727 L202.153737,78.9999727 L209.44818,48.7089994 L202,48.7089994 L203.856471,41 Z M228.65975,41 L237.553934,41 L230.272485,71.2366211 L242.495132,71.2366211 L240.62553,78.9999727 L219.508837,78.9999727 L228.65975,41 Z M250.81447,41.0000273 L261.918556,41.0000273 C265.246882,41.0000273 267.823347,41.7810329 269.648223,43.3426345 C271.472688,44.9047823 272.5059,47.1289891 272.747448,50.0164839 C272.988722,52.9039787 272.689728,56.0910935 271.850055,59.5778282 C270.437425,65.4439055 267.981597,70.1470097 264.482437,73.6882331 C260.98314,77.22932 256.677954,79 251.567153,79 L241.66342,79 L250.81447,41.0000273 Z M257.903611,48.3820941 L252.321203,71.5634444 L252.948598,71.5634444 C257.550043,71.5634444 260.852655,67.4050914 262.855614,59.0874293 C263.629634,55.8731384 263.75711,53.2852635 263.238179,51.3239411 C262.719111,49.3627553 261.331784,48.3820941 259.076745,48.3820941 L257.903611,48.3820941 Z M276.818212,41.0000273 L290.486863,41.0000273 C293.578702,41.0000273 295.891597,41.7993324 297.425822,43.3971233 C298.95991,44.9954603 299.372703,47.2652793 298.664336,50.2071263 C298.082624,52.6226583 296.900599,54.6793019 295.118671,56.3770571 C293.336196,58.0753585 290.953955,59.4143619 287.971538,60.3950231 C291.277979,60.9397741 292.88114,63.1190516 292.781293,66.9327188 L292.467117,79 L282.754461,79 L283.865635,68.4857169 C284.039479,66.7057506 283.929647,65.40717 283.535593,64.5899751 C283.141539,63.7727802 282.335377,63.3641827 281.117516,63.3641827 L280.299318,63.3641827 L276.534126,79 L267.667161,79 L276.818212,41.0000273 Z M283.907352,48.3820941 L281.945836,56.526867 L283.883006,56.526867 C285.264999,56.526867 286.418437,56.1182696 287.342911,55.3010747 C288.266975,54.4838798 288.880282,53.4487298 289.182012,52.1957614 C289.488255,50.9247665 289.399214,49.971418 288.915981,49.3354426 C288.432202,48.7000135 287.544931,48.3820941 286.253621,48.3820941 L283.907352,48.3820941 Z" id="tldr_logo"></path>
        </g>
    </g>
</svg>